<?xml version="1.0" encoding="UTF-8"?>
<!-- Generated by Pixelmator Pro 3.8 -->
<svg width="1024" height="1024" viewBox="0 0 1024 1024" xmlns="http://www.w3.org/2000/svg">
    <path id="Shape" fill="#ffffff" fill-rule="evenodd" stroke="none" d="M 0 1024 L 1024 1024 L 1024 0 L 0 0 Z"/>
    <g id="Group">
        <path id="Path" fill="#13223e" stroke="none" d="M 466.215607 478.401855 C 480.079193 477.609314 497.617828 478.298584 511.809875 478.217285 C 520.585999 478.166443 537.816406 477.700745 545.770203 478.368042 C 549.299622 478.687256 552.775696 479.446838 556.116211 480.630615 C 565.551941 483.933044 573.24585 490.922424 577.436584 499.999146 C 584.706238 515.713745 580.197937 543.83551 581.492676 561.570557 C 581.783936 565.568237 581.58075 573.634644 581.227661 577.656921 C 580.926147 581.21167 580.158142 584.711487 578.9422 588.065552 C 575.947083 596.182007 570.973938 602.022339 562.930298 605.574585 C 559.479675 607.092041 555.807129 608.045532 552.055054 608.397766 C 539.896057 609.55188 522.99762 608.64502 510.28656 608.585754 C 494.273834 608.512085 471.252289 610.894897 456.744324 605.320557 C 452.818634 603.359375 448.993683 600.896118 445.848755 597.817993 C 430.786987 583.072937 431.03595 555.874207 445.705627 540.933594 C 450.458649 536.092529 456.456451 532.658813 463.037628 531.011841 C 471.360657 528.958313 489.780823 529.83728 499.274963 529.846558 L 551.092224 529.670471 C 551.791687 506.528687 546.427368 504.585327 524.035828 504.720825 C 520.230347 504.743713 516.072632 504.715759 512.240051 504.717407 L 467.981995 504.842773 C 465.464539 504.857971 453.275879 505.928345 452.93631 503.040771 C 451.418884 490.148499 452.79068 482.681519 466.215607 478.401855 Z M 540.631042 581.860352 C 553.442078 577.335999 551.255676 567.386292 551.057495 556.040222 C 536.025452 555.895386 520.993286 555.859009 505.961975 555.92926 C 496.421295 555.937744 485.303833 555.686279 475.872345 556.188416 C 472.068573 557.863281 468.017548 560.048035 466.506897 564.218445 C 465.226593 567.756348 465.690613 572.40686 467.457886 575.700806 C 469.074402 578.712891 471.605377 580.510559 474.874847 581.381104 C 481.5289 583.153442 533.616333 583.355835 540.631042 581.860352 Z"/>
        <path id="path1" fill="#13223e" stroke="none" d="M 777.961182 477.998779 C 786.786377 477.869263 795.613281 477.796448 804.43927 477.780334 C 821.004089 477.709229 834.412048 476.531372 848.951416 486.683472 C 877.149292 506.383057 868.12262 540.984375 869.55365 570.328857 C 869.824585 575.932007 870.129517 604.251953 868.503662 606.544128 C 865.760071 607.582275 844.167053 608.009949 841.304932 606.859985 C 840.441162 606.512817 840.3396 606.22998 840.068604 605.322266 C 838.77301 600.95874 839.66217 594.192932 839.670654 589.561035 C 839.704468 576.750854 841.491211 530.443604 837.426636 520.961304 C 834.581421 514.316589 828.74707 509.613525 822.148132 507.037598 L 821.494385 506.788635 C 820.410522 506.480408 819.312256 506.223877 818.203796 506.019775 C 812.872375 505.001953 807.360718 505.514221 801.96582 505.459229 C 792.049988 505.357605 781.713257 504.253357 773.112488 510.310425 C 768.525452 513.567139 765.17981 518.284607 763.622559 523.690491 C 761.584351 530.529114 762.306702 546.076904 762.324463 553.850464 L 762.408264 588.571167 C 762.453979 601.537109 766.194275 609.661987 751.030029 607.328247 C 746.226196 606.588989 739.321533 608.369019 733.635376 607.125854 C 730.376953 604.300171 731.800415 579.849243 731.808838 574.559448 L 731.803772 544.711914 C 731.802917 536.101807 731.433716 525.763428 733.217041 517.468323 C 734.958862 509.178284 738.697449 501.43866 744.108398 494.921814 C 752.759155 484.612183 764.723389 479.18512 777.961182 477.998779 Z"/>
        <path id="path2" fill="#13223e" stroke="none" d="M 152.930634 395.487244 C 163.572174 395.031738 195.799118 393.699707 204.112854 398.193542 C 207.943695 400.263977 211.878708 403.00415 214.458862 406.549622 C 217.486984 410.711609 219.83934 415.792297 222.318726 420.31073 C 226.763489 428.439026 231.254852 436.541931 235.79361 444.617737 C 246.326767 463.335876 270.584625 504.889343 280.801086 525.015747 C 282.490417 528.343567 267.414246 553.446472 263.692627 560.230957 C 260.507874 565.49115 257.353607 571.818359 254.453369 577.331787 C 249.567398 569.646362 244.020981 558.942993 239.488983 550.828247 L 210.870178 499.524963 C 205.345764 489.62262 153.32016 399.032776 152.930634 395.487244 Z"/>
        <path id="path3" fill="#13223e" stroke="none" d="M 355.788086 427.782776 C 356.948181 428.788757 359.972076 438.437012 364.245789 443.221313 C 372.750061 452.74176 380.789429 456.097595 393.191437 457.373657 C 389.61969 465.312256 383.177368 475.333984 378.741882 483.153198 L 349.339844 534.867188 L 329.901886 569.023926 C 320.805725 584.976563 318.742981 592.739014 300.407532 599.321106 C 299.54129 599.518372 298.669922 599.696228 297.796051 599.855408 C 285.153534 602.184875 274.449341 598.15332 264.278625 591.067505 C 267.669983 583.956177 272.793884 575.578918 276.772064 568.609009 L 296.173584 534.158447 L 355.788086 427.782776 Z"/>
        <path id="path4" fill="#004ffd" stroke="none" d="M 408.284515 463.66272 C 412.518433 468.134644 416.906525 494.311279 417.457764 500.664734 C 420.566284 534.777466 409.796875 568.703003 387.582336 594.777222 C 367.337402 618.864014 338.353668 633.923218 307.006531 636.643066 C 276.039581 639.312195 245.30722 629.36499 221.777618 609.055725 C 197.800064 588.555054 181.941483 559.317261 179.471405 527.749146 C 178.932007 516.099854 179.331696 507.907227 182.555389 496.572998 C 182.743378 504.726746 182.983032 512.401978 184.45813 520.460022 C 195.246155 579.38269 251.182236 624.082764 311.659607 613.146484 C 340.920258 607.576355 366.74295 590.545044 383.382294 565.840088 C 402.830414 537.547241 407.397095 508.549133 401.185944 475.339966 C 403.519684 471.427734 405.88559 467.535095 408.284515 463.66272 Z"/>
        <path id="path5" fill="#13223e" stroke="none" d="M 666.401489 478.008179 C 679.52832 477.792236 692.894836 478.019165 706.030151 478.115662 C 707.282532 478.125 707.634827 478.642395 708.483337 479.376526 C 709.28186 481.478271 709.28186 487.82489 709.143799 490.137451 C 707.291016 521.045959 674.744019 495.905762 656.35437 513.83728 C 652.965576 517.135498 650.555603 521.308472 649.393005 525.89209 C 647.822205 532.125366 648.348083 546.080322 648.359863 553.146729 L 648.431885 592.232666 C 648.35907 595.286987 650.211792 607.274048 645.334351 607.255493 C 641.815979 607.379883 619.614929 608.207214 618.69281 606.483154 C 616.359924 602.120544 617.608093 554.239136 617.376892 547.668884 C 616.989075 536.659058 617.008545 526.235962 618.81897 518.044922 C 620.557373 509.894653 624.273071 502.296448 629.640015 495.919312 C 639.323853 484.343811 651.652222 479.313904 666.401489 478.008179 Z"/>
        <path id="path6" fill="#004ffd" stroke="none" d="M 395.094147 388.0177 C 409.576721 387.491089 421.761932 398.7677 422.357239 413.247742 C 422.9534 427.727722 411.735168 439.966309 397.258545 440.631042 C 382.682861 441.300903 370.342651 429.989502 369.743134 415.412109 C 369.143585 400.833801 380.513367 388.547852 395.094147 388.0177 Z"/>
        <path id="path7" fill="#004ffd" stroke="none" d="M 320.502594 396.581299 C 332.708984 395.708252 344.685059 397.1698 356.120026 401.63324 L 349.873322 412.837036 C 347.902008 412.122375 345.918823 411.443237 343.922943 410.797974 C 323.424835 404.298096 303.728607 406.556458 284.757263 416.367249 C 274.611938 421.33197 267.868134 429.253601 260.089539 436.918701 C 273.710114 412.437317 292.224182 399.230103 320.502594 396.581299 Z"/>
        <path id="path8" fill="#0f0b10" fill-opacity="0.011765" stroke="none" d="M 275.17334 544.387573 L 275.968475 544.745789 L 276.048065 545.44104 C 274.856659 546.285278 274.21817 546.773804 273.217285 547.878052 L 273.04538 548.099915 L 272.756622 547.177734 C 273.518707 545.302124 273.376465 545.827148 275.17334 544.387573 Z"/>
    </g>
</svg>
