<?xml version="1.0" encoding="UTF-8"?>
<!-- Generated by Pixelmator Pro 3.8 -->
<svg width="847" height="296" viewBox="0 0 847 296" xmlns="http://www.w3.org/2000/svg">
    <path id="Path" fill="#ffffff" stroke="none" d="M 370.182983 107.692993 C 386.554993 106.757019 407.267029 107.570984 424.026978 107.474976 C 434.390991 107.414978 454.739014 106.86499 464.132019 107.653015 C 468.299988 108.030029 472.405029 108.927002 476.349976 110.325012 C 487.492981 114.224976 496.578979 122.479004 501.528015 133.197998 C 510.112976 151.755981 504.789001 184.966003 506.317993 205.909973 C 506.661987 210.630981 506.421997 220.156982 506.005005 224.906982 C 505.648987 229.10498 504.742004 233.237976 503.30603 237.198975 C 499.768982 246.783997 493.895996 253.68103 484.396973 257.875977 C 480.322021 259.66803 475.984985 260.794006 471.554016 261.210022 C 457.195007 262.572998 437.239014 261.502014 422.228027 261.432007 C 403.317993 261.344971 376.130981 264.158997 358.997986 257.575989 C 354.362 255.26001 349.844971 252.351013 346.130981 248.716003 C 328.343994 231.302979 328.638 199.182983 345.961975 181.539001 C 351.575012 175.822021 358.65802 171.767029 366.429993 169.822021 C 376.258972 167.396973 398.012024 168.434998 409.223999 168.445984 L 470.416992 168.237976 C 471.242981 140.908997 464.90802 138.614014 438.465027 138.773987 C 433.971008 138.801025 429.060974 138.768005 424.534973 138.77002 L 372.268982 138.91803 C 369.296021 138.935974 354.901978 140.200012 354.500977 136.789978 C 352.708984 121.565002 354.328979 112.747009 370.182983 107.692993 Z M 458.062988 229.870972 C 473.192017 224.528015 470.609985 212.778015 470.375977 199.379028 C 452.624023 199.208008 434.872009 199.164978 417.120972 199.247986 C 405.854004 199.257996 392.724976 198.960999 381.586975 199.554016 C 377.094971 201.531982 372.310974 204.112 370.526978 209.036987 C 369.015015 213.215027 369.562988 218.70697 371.650024 222.596985 C 373.559021 226.153992 376.547974 228.276978 380.408997 229.304993 C 388.267029 231.39801 449.778992 231.637024 458.062988 229.870972 Z"/>
    <path id="path1" fill="#ffffff" stroke="none" d="M 738.335022 107.21698 C 748.757019 107.064026 759.18103 106.978027 769.604004 106.958984 C 789.166016 106.875 805 105.484009 822.170044 117.473022 C 855.469971 140.737 844.810059 181.598999 846.5 216.252991 C 846.819946 222.869995 847.180054 256.314026 845.26001 259.020996 C 842.02002 260.247009 816.52002 260.752014 813.140015 259.393982 C 812.119995 258.984009 812 258.650024 811.679993 257.578003 C 810.150024 252.424988 811.200012 244.434998 811.210022 238.965027 C 811.25 223.836975 813.359985 169.151001 808.559998 157.953003 C 805.200012 150.106018 798.309998 144.552002 790.517029 141.51001 L 789.744995 141.216003 C 788.465027 140.85199 787.16803 140.549011 785.859009 140.307983 C 779.562988 139.106018 773.054016 139.710999 766.682983 139.645996 C 754.973022 139.526001 742.765991 138.221985 732.609009 145.375 C 727.192017 149.221008 723.241028 154.791992 721.401978 161.176025 C 718.994995 169.252014 719.848022 187.612976 719.869019 196.79303 L 719.968018 237.796021 C 720.021973 253.107971 724.439026 262.703003 706.531006 259.947021 C 700.857971 259.073975 692.703979 261.176025 685.989014 259.708008 C 682.140991 256.370972 683.822021 227.495972 683.83197 221.249023 L 683.825989 186.000977 C 683.825012 175.833008 683.388977 163.624023 685.494995 153.828003 C 687.552002 144.038025 691.96698 134.89801 698.356995 127.202026 C 708.572998 115.026978 722.702026 108.617981 738.335022 107.21698 Z"/>
    <path id="path2" fill="#ffffff" stroke="none" d="M 0.212997 9.776001 C 12.779999 9.238037 50.837997 7.665039 60.656006 12.971985 C 65.179993 15.416992 69.826996 18.653015 72.873993 22.839966 C 76.450012 27.755005 79.227997 33.755005 82.156006 39.091003 C 87.404999 48.690002 92.709015 58.258972 98.069 67.796021 C 110.507996 89.901001 139.154999 138.973022 151.220001 162.741028 C 153.214996 166.671021 135.411011 196.315979 131.015991 204.328003 C 127.255005 210.539978 123.529999 218.012024 120.105011 224.52301 C 114.334991 215.447021 107.785004 202.807007 102.433014 193.223999 L 68.635986 132.638 C 62.112 120.94397 0.673004 13.963013 0.212997 9.776001 Z"/>
    <path id="path3" fill="#ffffff" stroke="none" d="M 239.774994 47.914978 C 241.144989 49.103027 244.716003 60.497009 249.763 66.146973 C 259.806 77.390015 269.299988 81.353027 283.946014 82.859985 C 279.727997 92.234985 272.119995 104.070007 266.881989 113.304016 L 232.160004 174.375 L 209.204987 214.711975 C 198.463013 233.551025 196.027008 242.718018 174.373993 250.491028 C 173.351013 250.723999 172.321991 250.934021 171.290009 251.122009 C 156.359985 253.872986 143.718994 249.112 131.708008 240.744019 C 135.713013 232.346008 141.764008 222.453003 146.462006 214.221985 L 169.373993 173.538025 L 239.774994 47.914978 Z"/>
    <path id="path4" fill="#004ffd" stroke="none" d="M 301.769989 90.286987 C 306.769989 95.567993 311.952026 126.481018 312.603027 133.984009 C 316.273987 174.268982 303.556 214.333008 277.321991 245.125 C 253.414001 273.570007 219.186005 291.354004 182.166992 294.565979 C 145.596985 297.718018 109.303986 285.971008 81.516998 261.987 C 53.201004 237.776978 34.473007 203.249023 31.556 165.968994 C 30.919006 152.211975 31.391006 142.536987 35.197998 129.151978 C 35.419998 138.781006 35.703003 147.844971 37.445007 157.361023 C 50.184998 226.945007 116.242004 279.732971 187.661987 266.817993 C 222.21701 260.23999 252.712006 240.127014 272.362 210.952026 C 295.32901 177.539978 300.721985 143.294983 293.386993 104.077026 C 296.143005 99.45697 298.937012 94.859985 301.769989 90.286987 Z"/>
    <path id="path5" fill="#ffffff" stroke="none" d="M 606.590027 107.228027 C 622.09198 106.973022 637.877014 107.241028 653.388977 107.35498 C 654.867981 107.366028 655.283997 107.97699 656.286011 108.843994 C 657.229004 111.325989 657.229004 118.820984 657.065979 121.552002 C 654.877991 158.052979 616.442017 128.364014 594.724976 149.539978 C 590.723022 153.434998 587.877014 158.362976 586.504028 163.776001 C 584.648987 171.137024 585.27002 187.617004 585.283997 195.961975 L 585.369019 242.119995 C 585.28302 245.72699 587.471008 259.882996 581.710999 259.861023 C 577.55603 260.007996 551.338013 260.984985 550.249023 258.948975 C 547.494019 253.796997 548.968018 197.252014 548.695007 189.492981 C 548.237 176.491028 548.26001 164.182007 550.39801 154.508972 C 552.450989 144.883972 556.838989 135.911011 563.177002 128.380005 C 574.612976 114.710022 589.171997 108.77002 606.590027 107.228027 Z"/>
    <path id="path6" fill="#004ffd" stroke="none" d="M 286.192993 0.954956 C 303.29599 0.333008 317.685974 13.650024 318.388977 30.75 C 319.093018 47.849976 305.845001 62.302979 288.748993 63.088013 C 271.536011 63.879028 256.963013 50.520996 256.255005 33.30603 C 255.546997 16.089966 268.973999 1.580994 286.192993 0.954956 Z"/>
    <path id="path7" fill="#004ffd" stroke="none" d="M 198.105011 11.067993 C 212.519989 10.036987 226.662994 11.763 240.166992 17.033997 L 232.790009 30.265015 C 230.462006 29.421021 228.119995 28.619019 225.763 27.856995 C 201.556 20.18103 178.29599 22.848022 155.891998 34.43396 C 143.911011 40.296997 135.946991 49.651978 126.760986 58.703979 C 142.846008 29.792969 164.709991 14.196045 198.105011 11.067993 Z"/>
    <path id="path8" fill="#0f0b10" fill-opacity="0.011765" stroke="none" d="M 144.574005 185.617981 L 145.513 186.041016 L 145.606995 186.862 C 144.200012 187.859009 143.446014 188.435974 142.264008 189.73999 L 142.061005 190.002014 L 141.720001 188.913025 C 142.619995 186.697998 142.451996 187.317993 144.574005 185.617981 Z"/>
</svg>
